<svg xmlns="http://www.w3.org/2000/svg" version="1.1" xmlns:xlink="http://www.w3.org/1999/xlink" width="512" height="512" x="0" y="0" viewBox="0 0 511 511" style="enable-background:new 0 0 512 512" xml:space="preserve" class=""><g><path fill="#feefcd" d="M71.5 97.5v384h368c35.346 0 64-28.654 64-64v-320z" opacity="1" data-original="#feefcd" class=""></path><path fill="#fde09b" d="M375.5 417.5H7.5c0 35.346 28.654 64 64 64h368c-35.346 0-64-28.654-64-64z" opacity="1" data-original="#fde09b"></path><circle cx="195.5" cy="69.5" r="40" fill="#7d55cc" opacity="1" data-original="#7d55cc"></circle><path fill="#5c2bbf" d="M215.5 89.5c-22.091 0-40-17.909-40-40a39.838 39.838 0 0 1 3.544-16.456C165.164 39.32 155.5 53.277 155.5 69.5c0 22.091 17.909 40 40 40 16.223 0 30.18-9.664 36.456-23.544A39.838 39.838 0 0 1 215.5 89.5z" opacity="1" data-original="#5c2bbf"></path><path d="M503.5 90h-56.087a7.5 7.5 0 0 0 0 15H496v312.5c0 31.154-25.346 56.5-56.5 56.5S383 448.654 383 417.5a7.5 7.5 0 0 0-7.5-7.5H195.413a7.5 7.5 0 0 0 0 15h172.978c2.08 19.876 12.338 37.353 27.338 49H71.5c-28.612 0-52.325-21.378-56.004-49H159.5a7.5 7.5 0 0 0 0-15H79V105h84.988c8.392 7.458 19.429 12 31.512 12 10.395 0 20.013-3.365 27.843-9.051l42.854 42.854c1.464 1.464 3.384 2.197 5.303 2.197s3.839-.732 5.303-2.197a7.5 7.5 0 0 0 0-10.606L241.606 105h170.589a7.5 7.5 0 0 0 0-15H238.343A47.22 47.22 0 0 0 243 69.5c0-26.191-21.309-47.5-47.5-47.5S148 43.309 148 69.5a47.22 47.22 0 0 0 4.657 20.5H71.5a7.5 7.5 0 0 0-7.5 7.5V410H7.5a7.5 7.5 0 0 0-7.5 7.5C0 456.925 32.075 489 71.5 489h368c39.425 0 71.5-32.075 71.5-71.5v-320a7.5 7.5 0 0 0-7.5-7.5zm-308-53c17.92 0 32.5 14.58 32.5 32.5 0 8.194-3.055 15.683-8.076 21.406-.093.051-.18.11-.271.165-.106.063-.213.123-.316.192-.115.077-.223.162-.334.245-.085.064-.173.123-.256.191a7.522 7.522 0 0 0-1.048 1.048c-.07.086-.132.176-.198.264-.081.107-.164.212-.239.324-.072.107-.134.219-.2.329-.052.087-.109.17-.157.259C211.183 98.946 203.694 102 195.5 102c-17.92 0-32.5-14.58-32.5-32.5S177.58 37 195.5 37z" fill="#000000" opacity="1" data-original="#000000" class=""></path><path d="M199 225.5a7.5 7.5 0 0 0-7.5-7.5h-48a7.5 7.5 0 0 0 0 15h16.525c-.011.166-.025.331-.025.5v56a7.5 7.5 0 0 0 15 0v-56c0-.169-.014-.334-.025-.5H191.5a7.5 7.5 0 0 0 7.5-7.5zM231.5 297c17.369 0 31.5-17.72 31.5-39.5S248.869 218 231.5 218 200 235.72 200 257.5s14.131 39.5 31.5 39.5zm0-64c8.944 0 16.5 11.22 16.5 24.5s-7.556 24.5-16.5 24.5-16.5-11.22-16.5-24.5 7.556-24.5 16.5-24.5zM376 257.5c0 21.78 14.131 39.5 31.5 39.5s31.5-17.72 31.5-39.5-14.131-39.5-31.5-39.5-31.5 17.72-31.5 39.5zm48 0c0 13.28-7.556 24.5-16.5 24.5S391 270.78 391 257.5s7.556-24.5 16.5-24.5 16.5 11.22 16.5 24.5zM359 257.5c0-37.917-52.051-47.029-54.267-47.398A7.502 7.502 0 0 0 296 217.5v72a7.5 7.5 0 0 0 7.5 7.5c19.196 0 55.5-8.255 55.5-39.5zm-48-30.438c12.241 3.678 33 12.553 33 30.438 0 17.56-21.292 22.537-33 23.945zM383 329.5a7.5 7.5 0 0 0-7.5-7.5h-160a7.5 7.5 0 0 0 0 15h160a7.5 7.5 0 0 0 7.5-7.5zM231.5 362a7.5 7.5 0 0 0 0 15h104a7.5 7.5 0 0 0 0-15z" fill="#000000" opacity="1" data-original="#000000" class=""></path></g></svg>